{"title":"Jait Re Jait 1977 Marathi 1080p Untouched WebHD x264 AAC [TMB]","uid":15552008,"size":3111038413,"categoryP":"video","categoryS":"movies","magnet":"?xt=urn:btih:4915c60474f1106e008489953c5b4fcb23fdcd26&amp;dn=Jait+Re+Jait+1977+Marathi+1080p+Untouched+WebHD+x264+AAC+%5BTMB%5D&amp;tr=udp%3A%2F%2Ftracker.leechers-paradise.org%3A6969&amp;tr=udp%3A%2F%2Fzer0day.ch%3A1337&amp;tr=udp%3A%2F%2Fopen.demonii.com%3A1337&amp;tr=udp%3A%2F%2Ftracker.coppersurfer.tk%3A6969&amp;tr=udp%3A%2F%2Fexodus.desync.com%3A6969","seeders":0,"leechers":1,"uploader":"Manoj_vb","files":1,"time":1471035128,"description":"http://i1306.photobucket.com/albums/s570/zyx55e/44_zpsc46e809d.gif\r\n \nhttp://s25.postimg.org/4yv4q4dfj/jait_re_jait_1332572301.jpg\r\n \nhttp://s25.postimg.org/4psymgb9b/vlcsnap_0102_01_20_11h57m10s008.png\r\n \nhttp://s25.postimg.org/443zqcg73/vlcsnap_4760_07_01_00h22m47s691.png\r\n \nhttp://s25.postimg.org/6mpor11xb/vlcsnap_5002_10_25_20h48m49s671.png\r\n \nhttp://s25.postimg.org/jgnqkdfcv/vlcsnap_6351_04_29_06h51m50s724.png\r\n \nhttp://s25.postimg.org/9uu642o73/vlcsnap_6737_08_06_07h57m28s908.png\r\n \nhttp://s25.postimg.org/z9sp0u29r/vlcsnap_7995_01_09_01h44m46s300.png\r\n \nhttp://s25.postimg.org/kzj4pclxb/vlcsnap_7995_05_03_10h34m15s897.png\r\n \nhttp://s25.postimg.org/5td2yevwf/vlcsnap_8029_06_27_17h39m18s614.png\r\n \nhttp://i1306.photobucket.com/albums/s570/zyx55e/oie_11162011MOJeDGQI_zpsc25b2b81.gif\r\n\r\nGeneral\r\nComplete name               : Jait Re Jait 1977 1080p Untouched WebHD x264 AAC [TMB].mp4\r\nFormat                      : MPEG-4\r\nFormat profile              : Base Media\r\nCodec ID                    : isom (isom/iso2/avc1/mp41)\r\nFile size                   : 2.90 GiB\r\nDuration                    : 1h 55mn\r\nOverall bit rate mode       : Variable\r\nOverall bit rate            : 3 585 Kbps\r\n\r\nVideo\r\nFormat                      : AVC\r\nFormat/Info                 : Advanced Video Codec\r\nFormat profile              :   \r\nFormat settings, CABAC      : Yes\r\nFormat settings, ReFrames   : 2 frames\r\nCodec ID                    : avc1\r\nCodec ID/Info               : Advanced Video Coding\r\nDuration                    : 1h 55mn\r\nBit rate                    : 3 457 Kbps\r\nWidth                       : 1 920 pixels\r\nHeight                      : 1 080 pixels\r\nDisplay aspect ratio        : 16:9\r\nFrame rate mode             : Constant\r\nFrame rate                  : 25.000 fps\r\nColor space                 : YUV\r\nChroma subsampling          : 4:2:0\r\nBit depth                   : 8 bits\r\nScan type                   : Progressive\r\nBits/(Pixel*Frame)          : 0.067\r\nStream size                 : 2.79 GiB (96%)\r\n\r\nAudio\r\nFormat                      : AAC\r\nFormat/Info                 : Advanced Audio Codec\r\nFormat profile              : LC\r\nCodec ID                    : 40\r\nDuration                    : 1h 55mn\r\nBit rate mode               : Variable\r\nBit rate                    : 126 Kbps\r\nChannel(s)                  : 2 channels\r\nChannel positions           : Front: L R\r\nSampling rate               : 44.1 KHz\r\nFrame rate                  : 43.066 fps (1024 spf)\r\nCompression mode            : Lossy\r\nStream size                 : 104 MiB (4%)\r\n\r\n\r\nShared by Manojvb\r\n\r\nSeeding 24x7... Extreme Seeding...\r\n\r\n \nhttp://i1306.photobucket.com/albums/s570/zyx55e/oie_1117625zVIGKvnK_zpsc8b6e055.gif","torrent":{"xt":"urn:btih:4915c60474f1106e008489953c5b4fcb23fdcd26","amp;dn":"Jait+Re+Jait+1977+Marathi+1080p+Untouched+WebHD+x264+AAC+%5BTMB%5D","amp;tr":["udp%3A%2F%2Ftracker.leechers-paradise.org%3A6969","udp%3A%2F%2Fzer0day.ch%3A1337","udp%3A%2F%2Fopen.demonii.com%3A1337","udp%3A%2F%2Ftracker.coppersurfer.tk%3A6969","udp%3A%2F%2Fexodus.desync.com%3A6969"],"infoHash":"4915c60474f1106e008489953c5b4fcb23fdcd26","infoHashBuffer":{"type":"Buffer","data":[73,21,198,4,116,241,16,110,0,132,137,149,60,91,79,203,35,253,205,38]},"announce":[],"urlList":[]}}